<?xml version="1.0" encoding="UTF-8" standalone="no"?>
<svg xmlns:svg="http://www.w3.org/2000/svg" xmlns="http://www.w3.org/2000/svg" version="1.1" width="690.75128" height="189.52153" id="svg7363">
  <defs id="defs7365">
    <radialGradient cx="0" cy="0" r="1" fx="0" fy="0" id="radialGradient142-4" gradientUnits="userSpaceOnUse" gradientTransform="matrix(0,-43.435501,-43.435501,0,491.85016,730.2583)" spreadMethod="pad">
      <stop id="stop144-0" style="stop-color:#0e88d3;stop-opacity:1" offset="0"/>
      <stop id="stop146-9" style="stop-color:#125b9f;stop-opacity:1" offset="1"/>
    </radialGradient>
    <clipPath id="clipPath112-4">
      <path d="M 472.225,728.621 468.548,753 c -16.737,-1.222 -23.129,-12.374 -23.129,-12.374 -7.749,-11.12 -5.031,-21.365 -5.031,-21.365 l 7.753,-0.238 1.294,7.976 22.79,1.622" id="path114-8"/>
    </clipPath>
    <radialGradient cx="0" cy="0" r="1" fx="0" fy="0" id="radialGradient124-8" gradientUnits="userSpaceOnUse" gradientTransform="matrix(0,-43.431595,-43.431595,0,491.8479,730.2583)" spreadMethod="pad">
      <stop id="stop126-2" style="stop-color:#83cd27;stop-opacity:1" offset="0"/>
      <stop id="stop128-4" style="stop-color:#32a740;stop-opacity:1" offset="1"/>
    </radialGradient>
    <radialGradient cx="0" cy="0" r="1" fx="0" fy="0" id="radialGradient100-5" gradientUnits="userSpaceOnUse" gradientTransform="matrix(0,-43.432739,-43.432739,0,491.8479,730.2594)" spreadMethod="pad">
      <stop id="stop102-5" style="stop-color:#35b4c0;stop-opacity:1" offset="0"/>
      <stop id="stop104-1" style="stop-color:#098c9b;stop-opacity:1" offset="1"/>
    </radialGradient>
    <radialGradient cx="0" cy="0" r="1" fx="0" fy="0" id="radialGradient82-7" gradientUnits="userSpaceOnUse" gradientTransform="matrix(0,-43.430897,-43.430897,0,491.8479,730.25604)" spreadMethod="pad">
      <stop id="stop84-1" style="stop-color:#0e88d3;stop-opacity:1" offset="0"/>
      <stop id="stop86-1" style="stop-color:#125b9f;stop-opacity:1" offset="1"/>
    </radialGradient>
    <clipPath id="clipPath52-5">
      <path d="m 499.582,717.26 c 0.256,1.487 0.378,2.972 0.411,4.522 0.283,13.734 -8.564,25.531 -20.971,29.596 l -0.762,-22.326 6.505,0.461 3.493,-11.768 11.324,-0.485" id="path54-2"/>
    </clipPath>
    <radialGradient cx="0" cy="0" r="1" fx="0" fy="0" id="radialGradient64-7" gradientUnits="userSpaceOnUse" gradientTransform="matrix(0,-43.429749,-43.429749,0,491.81534,730.22681)" spreadMethod="pad">
      <stop id="stop66-6" style="stop-color:#a6e1f9;stop-opacity:1" offset="0"/>
      <stop id="stop68-1" style="stop-color:#0994b9;stop-opacity:1" offset="1"/>
    </radialGradient>
  </defs>
  <g transform="translate(-4.6243718,-437.6014)" id="layer1">
    <path d="m 683.11991,559.4869 1.14155,0 c 0.65146,0 1.41051,0.13447 1.41051,0.94132 0,0.9264 -0.66641,1.03398 -1.42545,1.03398 l -1.12661,0 0,-1.9753 z m -1.26707,5.89602 1.26707,0 0,-2.96743 0.771,0 1.79301,2.96743 1.3089,0 -1.86474,-3.00927 c 1.14754,-0.0926 1.81095,-0.66939 1.81095,-1.83784 0,-1.44935 -0.88455,-2.01415 -2.54907,-2.01415 l -2.53712,0 0,6.86126 z m 2.32793,2.65667 c 3.33501,0 6.06637,-2.72539 6.06637,-6.05443 0,-3.35592 -2.73136,-6.06636 -6.06637,-6.06636 -3.34995,0 -6.06636,2.71044 -6.06636,6.06636 0,3.32904 2.71641,6.05443 6.06636,6.05443 z m 0,-1.18042 c -2.53711,0 -4.59011,-2.04105 -4.59011,-4.87401 0,-2.85986 2.053,-4.90091 4.59011,-4.90091 2.55206,0 4.59012,2.04105 4.59012,4.90091 0,2.83296 -2.03806,4.87401 -4.59012,4.87401 m -81.50451,-28.60755 -11.0898,0 c 3.24835,-9.60758 6.96886,-19.31675 11.0898,-28.38045 4.11198,9.0637 7.82651,18.77287 11.08681,28.38045 l -11.08681,0 z m 7.83847,-42.60803 -15.6859,0 c -8.74692,19.9204 -18.34554,45.52765 -23.93676,70.45057 l 12.18355,2.21438 c 1.47026,-6.38912 3.1288,-12.71249 4.97561,-18.91632 l 29.24409,0 c 1.83784,6.20383 3.49637,12.5272 4.96665,18.91632 l 12.1955,-2.21438 c -5.5972,-24.92292 -15.20179,-50.53017 -23.94274,-70.45057 m -191.20719,59.89867 0,-19.69328 23.38989,0 -2.66262,-11.81 -20.72727,0 0,-16.7886 27.96805,0 0,-11.60679 -41.54715,0 0,71.4965 42.59308,0 0,-11.59783 -29.01398,0 m 248.58369,-47.98707 0,59.5849 -13.78829,0 0,-59.5849 -21.23528,0 0,-11.9116 54.81547,0 2.69251,11.9116 -22.48441,0 m -129.7456,60.41865 c -8.70509,0 -16.19691,-1.9753 -22.55315,-4.97562 l 1.90658,-12.54513 c 6.05441,3.52626 13.55818,6.32935 20.70633,6.32935 6.32338,0 10.62363,-3.01228 10.5519,-8.71108 -0.0597,-5.28341 -2.58492,-7.45594 -13.00235,-11.91159 -13.96161,-5.70179 -19.6126,-10.25904 -19.75903,-21.34287 -0.16137,-12.64375 9.47608,-19.99511 22.84601,-19.99511 8.08351,0 13.69266,1.65256 18.91631,4.34806 l -1.91255,12.43158 c -5.22962,-3.42466 -11.36472,-5.5972 -16.96192,-5.5972 -6.84634,0 -9.80183,3.3141 -9.74504,7.67112 0.0598,4.56024 2.36677,6.73577 12.36881,10.87464 14.80135,6.00959 20.25211,11.08681 20.39854,22.1796 0.17332,13.98851 -9.97514,21.24425 -23.76044,21.24425 m -72.54541,-0.83375 0,-71.4965 13.7853,0 0,59.37571 21.51917,0 2.58494,12.12079 -37.88941,0 m -155.54111,-71.49949 0,42.18667 c -7.65918,-14.43378 -19.90845,-30.31093 -32.1159,-42.18069 l 0,-0.006 -13.47452,0 0,71.48753 13.00235,0 0.009,-54.15504 c 14.1194,15.5305 25.79194,34.83529 34.4522,54.15504 l 11.38864,0 0,-71.48753 -13.26234,0 m 61.55803,11.91486 0,59.5849 -13.7853,0 0,-59.5849 -21.23529,0 0,-11.9116 54.82145,0 2.68654,11.9116 -22.4874,0 m -128.90289,59.5849 0,-71.4965 -13.78709,0 0,71.4965 13.78709,0 z" id="path46" style="fill:#706d6e;fill-opacity:1;fill-rule:nonzero;stroke:none"/>
    <g transform="matrix(0,-2.9883594,-2.9883594,0,2259.859,1936.7799)" clip-path="url(#clipPath52-5)" id="g50">
      <g id="g56">
        <g id="g62">
          <path d="m 500,753 -60.075,0 0,-227.801 60.075,0 0,227.801 z" id="path70" style="fill:url(#radialGradient64-7);stroke:none"/>
        </g>
      </g>
    </g>
    <g transform="matrix(0,-2.9883594,-2.9883594,0,2259.859,1936.7799)" id="g74">
      <g id="g80">
        <path d="m 488.258,717.745 -3.493,11.768 -6.505,-0.461 -0.37,-10.86 10.368,-0.447" id="path88" style="fill:url(#radialGradient82-7);stroke:none"/>
      </g>
    </g>
    <g transform="matrix(0,-2.9883594,-2.9883594,0,2259.859,1936.7799)" id="g92">
      <g id="g98">
        <path d="m 469.105,693.97 c 15.57,0.099 23.097,10.494 23.097,10.494 l -3.944,13.281 -10.368,0.447 0.37,10.86 -6.035,-0.431 1.563,-10.379 -25.647,0.781 -2.187,-13.503 c 9.972,-12.634 23.151,-11.55 23.151,-11.55" id="path106" style="fill:url(#radialGradient100-5);stroke:none"/>
      </g>
    </g>
    <g transform="matrix(0,-2.9883594,-2.9883594,0,2259.859,1936.7799)" clip-path="url(#clipPath112-4)" id="g110">
      <g id="g116">
        <g id="g122">
          <path d="m 500,753 -60.075,0 0,-227.801 60.075,0 0,227.801 z" id="path130" style="fill:url(#radialGradient124-8);stroke:none"/>
        </g>
      </g>
    </g>
    <g transform="matrix(0,-2.9883594,-2.9883594,0,2259.859,1936.7799)" id="g134">
      <g id="g140">
        <path d="m 472.225,728.621 -22.79,-1.622 -1.294,-7.976 25.647,-0.781 -1.563,10.379" id="path148" style="fill:url(#radialGradient142-4);stroke:none"/>
      </g>
    </g>
  </g>
</svg>