<svg version="1.1" id="Layer_1" xmlns:x="ns_extend;" xmlns:i="ns_ai;" xmlns:graph="ns_graphs;" xmlns="http://www.w3.org/2000/svg" xmlns:xlink="http://www.w3.org/1999/xlink" x="0px" y="0px" viewBox="0 0 119.4 119.4" style="enable-background:new 0 0 119.4 119.4;" xml:space="preserve">
 <style type="text/css">
  .st0{fill:#FA515D;}
 </style>
 <metadata>
  <sfw xmlns="ns_sfw;">
   <slices>
   </slices>
   <sliceSourceBounds bottomLeftOrigin="true" height="119.4" width="119.4" x="369.1" y="-59.1">
   </sliceSourceBounds>
  </sfw>
 </metadata>
 <g>
  <path class="st0" d="M65.8,0c2.7,0.5,5.2,1.1,7.6,1.7c23.8,5.8,41.4,24.9,45.2,49.1c3.7,23.2-7.7,47.6-27.9,59.7
		c-0.5,0.3-1,0.6-1.9,1c0-4.4,0.2-8.6-0.1-12.6c-0.3-4.1,1-7,3.8-10.1c11.3-13.1,14.3-28.2,8.3-44.4c-6.1-16.3-18.4-26-35.7-28.3
		c-26.7-3.5-49.8,17.1-49.7,44c0,7.8,0.2,15.5,0.3,23.3c0.1,6.3,1.4,12.3,3.5,18.2c0.3,0.8,0.5,1.7,0.5,2.6
		C8.7,93.8,2.2,81.2,0.1,66.2C0,61.9,0,57.8,0.1,53.3C3.9,27,21.3,7.5,46.2,1.5c2.2-0.5,4.4-1,6.6-1.5H65.8z M65.8,0">
  </path>
  <path class="st0" d="M78.4,105.1c0,3.3,0.1,6.4,0,9.5c0,0.6-0.5,1.7-1,1.9c-11.2,3.2-22.4,4.8-33.2-0.9
		c-11.3-5.9-17.6-15.5-18.1-28.2c-0.4-9.7-0.3-19.5,0-29.2c0.5-14.9,12.9-28.4,27.7-30.6c19.1-2.8,35.4,8.7,39,27.6
		c2.3,12.2-3.2,20.9-13.4,24.5c-8.5,3-16.8,6.5-25.2,9.8c-0.6,0.2-1.2,0.4-2,0.7c0-5.3,0-10.4,0.1-15.5c0-0.5,0.9-1.3,1.5-1.5
		c6.7-2.7,13.4-5.3,20.1-8c3.6-1.4,4.1-2.3,3.7-6.2c-1-8.9-8.2-15.9-16.8-16.3c-9.4-0.4-17.2,5.5-19,14.5c-0.3,1.5-0.3,3.1-0.3,4.6
		c0,7.5,0.3,15.1-0.1,22.6c-0.6,10.7,8.3,21.5,22.5,19.2c4.8-0.8,9.6-2.1,14.5-3.2V105.1z M78.4,105.1">
  </path>
 </g>
</svg>