<?xml version="1.0" encoding="iso-8859-1"?>
<!-- Uploaded to: SVG Repo, www.svgrepo.com, Generator: SVG Repo Mixer Tools -->
<svg fill="#000000" height="800px" width="800px" version="1.1" id="Layer_1" xmlns="http://www.w3.org/2000/svg" xmlns:xlink="http://www.w3.org/1999/xlink" 
	 viewBox="0 0 512 512" xml:space="preserve">
<g>
	<g>
		<path d="M389.565,33.391h-28.307C331.418,12.423,295.159,0,256,0s-75.418,12.423-105.258,33.391h-28.307
			c-64.445,0-116.87,52.429-116.87,116.87v116.87c0,36.826,29.956,66.783,66.783,66.783c19.995,0,38.388-9.208,50.835-23.86
			c4.932,5.138,10.143,10.062,15.714,14.678c-1.131,15.18-7.691,29.754-18.483,40.553c-19.533,19.527-19.533,51.299,0,70.826
			c19.568,19.58,51.251,19.581,70.826,0.006c5.384-5.382,10.169-11.144,14.674-17.07v76.259c0,9.223,7.479,16.696,16.696,16.696
			h66.783c9.217,0,16.696-7.473,16.696-16.696v-76.263c4.506,5.926,9.291,11.687,14.674,17.067
			c19.571,19.582,51.257,19.581,70.826,0c19.533-19.527,19.533-51.299,0-70.826c-10.793-10.799-17.352-25.372-18.483-40.553
			c5.571-4.616,10.783-9.541,15.714-14.679c12.445,14.653,30.838,23.862,50.833,23.862c36.826,0,66.783-29.956,66.783-66.783
			v-116.87C506.435,85.82,454.01,33.391,389.565,33.391z M101.732,282.821c-5.721,10.653-16.955,17.701-29.384,17.701
			c-18.413,0-33.391-14.978-33.391-33.391v-116.87c0-43.223,33.017-78.866,75.154-83.056
			c-26.075,31.715-41.763,72.28-41.763,116.448C72.348,219.686,82.831,253.722,101.732,282.821z M167.631,412.5
			c-6.304,6.304-17.305,6.304-23.609,0c-6.51-6.52-6.537-17.061,0-23.608c14.823-14.823,24.362-34.341,27.375-54.979h33.495
			C201.501,364.338,188.858,391.281,167.631,412.5z M189.217,200.348c-9.22,0-16.696-7.475-16.696-16.696
			c0-9.22,7.475-16.696,16.696-16.696s16.696,7.475,16.696,16.696C205.913,192.873,198.438,200.348,189.217,200.348z
			 M306.087,183.652c0-9.22,7.475-16.696,16.696-16.696s16.696,7.475,16.696,16.696c0,9.22-7.475,16.696-16.696,16.696
			S306.087,192.873,306.087,183.652z M367.978,412.501c-23.343,23.343-56.495-39.343-60.87-78.586h33.495
			c3.014,20.636,12.552,40.153,27.375,54.978C374.487,395.412,374.515,405.953,367.978,412.501z M473.043,267.13
			c0,18.413-14.978,33.391-33.391,33.391c-12.429,0-23.663-7.048-29.384-17.701c18.902-29.099,29.384-63.135,29.384-99.169
			c0-44.168-15.687-84.733-41.763-116.448c42.136,4.191,75.154,39.834,75.154,83.056V267.13z"/>
	</g>
</g>
</svg>